<?xml version="1.0" encoding="UTF-8"?>
<svg version="1.1" xmlns="http://www.w3.org/2000/svg" width="512" height="512">
<path d="M0 0 C2.62353516 1.23657227 2.62353516 1.23657227 5.2890625 2.81640625 C6.29855957 3.40752197 7.30805664 3.9986377 8.34814453 4.60766602 C9.97018799 5.57530884 9.97018799 5.57530884 11.625 6.5625 C12.77525154 7.2392673 13.9261443 7.91494579 15.07763672 8.58959961 C16.8807521 9.64621202 18.68342761 10.70350814 20.48416138 11.76417542 C26.41198955 15.254658 32.3857451 18.66220111 38.36590576 22.0619812 C48.59242251 27.87850997 58.77368436 33.76957932 68.92675781 39.71337891 C77.13915175 44.51411596 85.39261375 49.24140258 93.65625 53.953125 C102.11821166 58.7779277 110.56590869 63.62658355 119 68.5 C121.11843946 69.7214411 123.23692947 70.94279454 125.35546875 72.1640625 C129.48168046 74.54339724 133.60309484 76.93071748 137.7204895 79.32525635 C140.29123218 80.81840642 142.86536116 82.30564992 145.44018555 83.79174805 C146.67668616 84.50714161 147.91174577 85.22503233 149.14526367 85.94555664 C150.85998804 86.94677154 152.58028036 87.93843192 154.30078125 88.9296875 C155.28216064 89.49929199 156.26354004 90.06889648 157.2746582 90.65576172 C159.93535842 91.96811641 162.056075 92.696622 165 93 C167.50619318 91.89747361 167.50619318 91.89747361 169.875 90.1875 C179.93280316 83.77898825 190.3564343 83.23313859 201.890625 85.27734375 C213.54365538 87.98564855 223.10697044 95.30851827 230 105 C235.83517776 116.35259832 238.29770908 128.74999495 234.8125 141.3125 C230.41770761 153.80188674 223.01634393 163.18304289 211 169 C209.6717841 169.35317335 208.33892855 169.6899045 207 170 C207.02350572 171.4859092 207.02350572 171.4859092 207.04748631 173.00183678 C207.42513251 197.12232648 207.70435122 221.24243229 207.88080692 245.36525536 C207.96841296 257.03119438 208.08780578 268.69517898 208.2824707 280.35986328 C208.45209336 290.5288294 208.5616285 300.69638027 208.59950441 310.86672175 C208.62164305 316.25116065 208.67351823 321.63155163 208.79741096 327.0146904 C208.91319884 332.08697402 208.94833309 337.15356348 208.92283058 342.22704315 C208.92749166 344.08404954 208.96111292 345.94125437 209.02649307 347.79711533 C209.40932272 359.22887757 209.40932272 359.22887757 207 364 C202.84542358 368.28908312 197.49283554 370.72120058 192.08189952 373.06662488 C189.09699426 374.40484331 186.36738348 376.04304273 183.56640625 377.73046875 C181.56553379 378.88355831 179.56422606 380.03589289 177.5625 381.1875 C175.31379049 382.4830528 173.06509292 383.77862632 170.81640625 385.07421875 C169.68734863 385.72438965 168.55829102 386.37456055 167.39501953 387.04443359 C161.9283002 390.19332054 156.46425113 393.34683264 151 396.5 C148.83334689 397.7500235 146.66668021 399.00002347 144.5 400.25 C143.4275 400.86875 142.355 401.4875 141.25 402.125 C105.50000003 422.74999998 105.50000003 422.74999998 102.24829102 424.62597656 C100.08731012 425.87270256 97.92634002 427.11944727 95.76538086 428.36621094 C90.26181149 431.54145883 84.75803968 434.71635495 79.25390625 437.890625 C78.14337891 438.5312085 77.03285156 439.17179199 75.88867188 439.83178711 C73.69626926 441.09615201 71.50356786 442.35999897 69.31054688 443.62329102 C64.26933721 446.52879483 59.23418434 449.44357174 54.21484375 452.38671875 C53.32917725 452.90459961 52.44351074 453.42248047 51.53100586 453.95605469 C49.88774342 454.91788708 48.24650284 455.88318523 46.60766602 456.85253906 C41.22318174 460 41.22318174 460 39 460 C39.04640625 461.01578125 39.0928125 462.0315625 39.140625 463.078125 C39.59688715 477.24471897 36.84023552 488.23362467 27 499 C16.19177833 508.87848217 4.66111095 511.95005066 -9.65234375 511.37890625 C-22.25836171 510.50451622 -30.72565986 504.64012339 -39.25 495.75 C-44.23699074 489.93682118 -48.1096518 482.69352159 -49 475 C-48.80277344 473.85789062 -48.60554687 472.71578125 -48.40234375 471.5390625 C-47.838825 466.79413994 -47.61493162 463.24476136 -50 459 C-56.4080229 453.20890749 -64.66652053 449.68307819 -72.34716797 445.85888672 C-78.04427265 442.99839451 -83.50587053 439.72796374 -89 436.5 C-91.16557777 435.24811448 -93.33224907 433.99811872 -95.5 432.75 C-108.5 425.25 -121.5 417.75 -134.5 410.25 C-135.57266113 409.63116943 -136.64532227 409.01233887 -137.75048828 408.37475586 C-139.91557071 407.12564482 -142.08060982 405.87645871 -144.24560547 404.62719727 C-149.68615706 401.48797691 -155.12747216 398.35009437 -160.5703125 395.21484375 C-171.39364167 388.97872075 -182.20821351 382.72808398 -193 376.4375 C-193.9605127 375.87796631 -194.92102539 375.31843262 -195.91064453 374.74194336 C-196.82700684 374.20706299 -197.74336914 373.67218262 -198.6875 373.12109375 C-199.47511719 372.6614624 -200.26273438 372.20183105 -201.07421875 371.72827148 C-202.03972656 371.15794189 -203.00523437 370.5876123 -204 370 C-204.80192717 369.72462371 -205.60385433 369.44924742 -206.43008232 369.16552639 C-209.66366167 367.80776812 -211.61565511 366.5965456 -214 364 C-215.55671757 357.90375946 -215.3235078 351.85947151 -215.22705078 345.60205078 C-215.23409466 343.69969144 -215.24553256 341.79734403 -215.2610321 339.89503479 C-215.29062396 334.73574544 -215.25875219 329.57844919 -215.21586847 324.41932154 C-215.18148152 319.02605411 -215.20358045 313.63302595 -215.21969604 308.23971558 C-215.24161888 298.02918807 -215.21271826 287.81946162 -215.165573 277.60904491 C-215.11436888 265.98392257 -215.11979866 254.35904276 -215.12999368 242.73383737 C-215.14969428 218.82229478 -215.09824737 194.91132828 -215 171 C-216.11604614 170.40687012 -216.11604614 170.40687012 -217.25463867 169.80175781 C-218.2366626 169.27420898 -219.21868652 168.74666016 -220.23046875 168.203125 C-221.68682739 167.42437012 -221.68682739 167.42437012 -223.17260742 166.62988281 C-234.31764429 160.20519875 -239.89317122 150.21752845 -243.5546875 138.17578125 C-245.95423746 126.45166433 -243.53750364 114.18626582 -237.1875 104.125 C-236.15471034 102.72754633 -235.09296254 101.35091234 -234 100 C-233.52175781 99.38640625 -233.04351562 98.7728125 -232.55078125 98.140625 C-225.34012281 89.93100885 -213.96267983 85.24452127 -203.28515625 84.08984375 C-191.65830422 83.77186801 -181.78521726 86.6755676 -172.16943359 93.25195312 C-169.94361331 94.27779831 -169.94361331 94.27779831 -167.54003906 93.07226562 C-166.62448242 92.52248047 -165.70892578 91.97269531 -164.765625 91.40625 C-163.72921875 90.79523438 -162.6928125 90.18421875 -161.625 89.5546875 C-160.51125 88.87664062 -159.3975 88.19859375 -158.25 87.5 C-157.07907746 86.80308474 -155.90718712 86.10779315 -154.734375 85.4140625 C-152.32150617 83.98421431 -149.91373951 82.54631368 -147.50976562 81.1015625 C-142.36973668 78.01656086 -137.18292013 75.01216572 -132 72 C-130.01810141 70.84266667 -128.03633161 69.68511276 -126.0546875 68.52734375 C-114.30088869 61.67127985 -102.50024319 54.8958374 -90.70898438 48.10449219 C-78.1411788 40.86474917 -65.58715879 33.60300929 -53.06494141 26.28466797 C-44.4210387 21.23656024 -35.75307087 16.23083206 -27.078125 11.23632812 C-25.5621875 10.36331055 -25.5621875 10.36331055 -24.015625 9.47265625 C-22.5315918 8.62598389 -22.5315918 8.62598389 -21.01757812 7.76220703 C-18.91591061 6.53487401 -16.83773196 5.26679846 -14.77929688 3.96826172 C-13.73322266 3.31744629 -12.68714844 2.66663086 -11.609375 1.99609375 C-10.67577148 1.39853271 -9.74216797 0.80097168 -8.78027344 0.18530273 C-5.29297025 -1.30142514 -3.61331387 -1.04675388 0 0 Z M-11.234375 37.7890625 C-12.27078125 38.39363281 -13.3071875 38.99820313 -14.375 39.62109375 C-15.48875 40.28238281 -16.6025 40.94367187 -17.75 41.625 C-18.92138916 42.31202696 -20.09327184 42.99821308 -21.265625 43.68359375 C-23.67652079 45.09475958 -26.08456512 46.51060703 -28.49023438 47.93066406 C-32.67873501 50.40245807 -36.88032778 52.85161827 -41.08251953 55.30004883 C-43.04244739 56.44205533 -45.0017485 57.5851381 -46.96044922 58.72924805 C-59.70531882 66.17331101 -72.50120849 73.52903433 -85.29101562 80.89550781 C-99.72092944 89.20667066 -99.72092944 89.20667066 -114.125 97.5625 C-115.12055908 98.14161133 -116.11611816 98.72072266 -117.1418457 99.31738281 C-119.11656591 100.47257555 -121.08655932 101.63589001 -123.05151367 102.80761719 C-128.21774075 105.87540094 -133.4091833 108.73578166 -138.80078125 111.390625 C-149.36435198 116.05364107 -149.36435198 116.05364107 -157.04882812 124.07666016 C-158.05565751 128.44649712 -157.57461769 132.61238132 -157.078125 137.02392578 C-156.76634733 144.90995229 -162.85903382 153.41251798 -168 159 C-172.73004651 163.70108704 -177.09498022 166.62570298 -183 170 C-183 228.08 -183 286.16 -183 346 C-173.76 351.28 -164.52 356.56 -155 362 C-141.36759936 369.84506074 -127.75551317 377.72021777 -114.17871094 385.66064453 C-105.88947948 390.49987344 -97.55774957 395.26282533 -89.21859741 400.01519775 C-80.93307311 404.73819285 -72.67225235 409.50135592 -64.4375 414.3125 C-63.46458008 414.87912354 -62.49166016 415.44574707 -61.48925781 416.02954102 C-56.7828279 418.77363032 -52.09223315 421.53996951 -47.42578125 424.3515625 C-46.55058838 424.87322998 -45.67539551 425.39489746 -44.77368164 425.93237305 C-43.13782665 426.90799905 -41.50767762 427.89328242 -39.88452148 428.88989258 C-39.16466064 429.31681396 -38.4447998 429.74373535 -37.703125 430.18359375 C-37.08083008 430.56056396 -36.45853516 430.93753418 -35.81738281 431.32592773 C-33.48241325 432.19197435 -32.31473023 431.82753379 -30 431 C-28.40070325 430.21939087 -26.81811827 429.40399022 -25.25 428.5625 C-14.29465033 423.05297822 -2.97214881 422.28884058 8.875 425.6875 C13.5201072 427.25092004 17.31527169 429.15161274 21.12109375 432.2421875 C24.0958134 433.44197048 26.0763364 432.11966324 29 431 C30.83663347 430.05548379 32.64650115 429.05753662 34.4296875 428.015625 C35.4594873 427.41758057 36.48928711 426.81953613 37.55029297 426.20336914 C38.64744629 425.55875732 39.74459961 424.91414551 40.875 424.25 C42.03892834 423.5716745 43.20315883 422.89386723 44.36767578 422.21655273 C47.34667457 420.48216421 50.32193544 418.74148059 53.29589844 416.99847412 C57.81930958 414.34809866 62.34778183 411.7063649 66.875 409.0625 C67.84550293 408.49499023 68.81600586 407.92748047 69.81591797 407.34277344 C78.10897777 402.50052614 86.44512941 397.73557381 94.78845215 392.98077393 C103.90769639 387.78247415 112.99132479 382.52600957 122.05151367 377.2253418 C130.45104581 372.3129876 138.87525961 367.44425472 147.30712891 362.58764648 C149.30180491 361.43869879 151.27509386 360.25179243 153.224823 359.02812195 C156.00489871 357.39536486 158.64562573 356.47543267 161.74523926 355.60775757 C167.67099827 353.62656951 172.3802575 351.24241855 176 346 C179.45303281 334.32036617 178.26875965 321.38218754 177.92648482 309.34514642 C177.80721822 304.44227372 177.79651245 299.53915496 177.77400208 294.63505554 C177.71508324 285.36146535 177.55938012 276.09216124 177.36836177 266.82045382 C177.15554296 256.25994352 177.05141711 245.69922175 176.95614851 235.13709891 C176.75786326 213.42234552 176.42395851 191.71144331 176 170 C175.25669434 169.61110596 174.51338867 169.22221191 173.74755859 168.8215332 C172.76609863 168.29906006 171.78463867 167.77658691 170.7734375 167.23828125 C169.80325684 166.72563721 168.83307617 166.21299316 167.83349609 165.68481445 C160.2983525 161.20437107 155.67155322 154.8177559 152 147 C151.13375 145.2675 151.13375 145.2675 150.25 143.5 C148.88217616 139.86717753 148.92141282 136.50487868 148.90356445 132.67993164 C149.00145022 125.96798131 149.00145022 125.96798131 146.57421875 119.91796875 C144.14722759 118.2826951 141.68192855 117.17718238 139 116 C137.03347977 114.94639282 135.09426698 113.84989483 133.15258789 112.7512207 C130.83688048 111.44316378 128.50727118 110.16250246 126.17578125 108.8828125 C120.60654393 105.80223111 115.11464419 102.59471809 109.625 99.375 C100.82246322 94.21620867 91.98875159 89.11523265 83.125 84.0625 C73.00187732 78.29101034 62.89809606 72.48716181 52.80932617 66.65576172 C47.12940159 63.3751789 41.44337747 60.10578465 35.74609375 56.85546875 C35.1398819 56.50956696 34.53367004 56.16366516 33.90908813 55.80728149 C30.90065221 54.09115916 27.89128274 52.37669589 24.88085938 50.6640625 C19.75828414 47.74433973 14.64922592 44.81077265 9.59765625 41.76953125 C8.8075415 41.29491455 8.01742676 40.82029785 7.20336914 40.33129883 C5.78754258 39.47584152 4.37614389 38.61298858 2.97045898 37.7409668 C-2.67784529 34.32538288 -5.65169973 34.50057005 -11.234375 37.7890625 Z " fill="#433960" transform="translate(260,1)"/>
<path d="M0 0 C2.51033138 1.30143908 4.85691491 2.63650749 7.25 4.125 C8.76603157 5.04184698 10.28302258 5.95710868 11.80078125 6.87109375 C12.62916504 7.37237793 13.45754883 7.87366211 14.31103516 8.39013672 C19.31598263 11.3865616 24.38025828 14.28052812 29.4375 17.1875 C31.68626842 18.48295053 33.93496541 19.77852508 36.18359375 21.07421875 C37.31265137 21.72438965 38.44170898 22.37456055 39.60498047 23.04443359 C45.07169975 26.19332051 50.53577646 29.3467849 56 32.5 C62.52232439 36.26365365 69.04513763 40.02644623 75.5703125 43.78515625 C76.66859375 44.41808594 77.766875 45.05101562 78.8984375 45.703125 C80.9215791 46.86900321 82.94497682 48.03443721 84.96875 49.19921875 C86.94945285 50.34091074 88.91168064 51.51513822 90.85612488 52.71754456 C94.07987446 54.61026685 97.37285758 55.96274943 100.85151672 57.3245697 C116.936812 64.2158259 116.936812 64.2158259 120.37615204 72.19105721 C122.37835304 81.0515979 122.05205924 90.07414179 121.72983861 99.09778595 C121.61216252 103.04897825 121.62558389 106.99999679 121.62193298 110.95263672 C121.597076 117.57903772 121.48192278 124.19875236 121.30493164 130.82275391 C121.1010659 138.47088714 121.01198569 146.11333381 120.99000651 153.76402378 C120.96636234 161.93543615 120.87400993 170.10486514 120.75362468 178.27537918 C120.72271665 180.62041754 120.70299037 182.96534579 120.6851368 185.31051636 C120.65266246 188.99621169 120.57296217 192.67807064 120.45701027 196.36205482 C120.40422983 198.35215269 120.39461279 200.34324951 120.38638306 202.33403015 C120.04879337 210.88026934 120.04879337 210.88026934 117.04386711 214.08843994 C114.75174713 215.64467836 112.51516187 216.84711755 110 218 C108.67039343 218.75095617 107.34515936 219.50978982 106.02734375 220.28125 C104.6657063 221.02385536 103.3023458 221.76330793 101.9375 222.5 C94.72498842 226.45177903 87.59606568 230.53041377 80.5 234.6875 C72.0573138 239.63168275 63.60195534 244.55226959 55.125 249.4375 C54.05048584 250.05681396 52.97597168 250.67612793 51.86889648 251.31420898 C49.68368855 252.57340672 47.49838543 253.83243927 45.31298828 255.09130859 C40.83598658 257.67061584 36.35997085 260.25162666 31.88500977 262.83447266 C29.69288764 264.09829734 27.49939226 265.35974347 25.30444336 266.61865234 C20.27314399 269.50832547 15.26903934 272.42778422 10.3203125 275.45703125 C9.01211548 276.2473877 9.01211548 276.2473877 7.67749023 277.05371094 C6.06615471 278.03008642 4.46337046 279.02077699 2.87133789 280.02832031 C-2.28345267 283.12977715 -2.28345267 283.12977715 -5.5234375 282.54296875 C-6.34070313 282.03378906 -7.15796875 281.52460938 -8 281 C-9.19200485 280.36600642 -10.38625106 279.7362188 -11.58203125 279.109375 C-12.99434166 278.32679167 -14.40434341 277.54003315 -15.8125 276.75 C-16.59383301 276.31381348 -17.37516602 275.87762695 -18.18017578 275.42822266 C-25.64234535 271.24084956 -33.02723703 266.92300108 -40.40942383 262.59667969 C-48.24254287 258.01042073 -56.11314935 253.49286249 -64 249 C-75.69847831 242.33299187 -87.34404735 235.57898032 -98.96337891 228.77490234 C-102.23684721 226.86156302 -105.51448492 224.95551288 -108.79296875 223.05078125 C-109.90446289 222.40447754 -111.01595703 221.75817383 -112.16113281 221.09228516 C-114.30697236 219.84475608 -116.45343384 218.59829601 -118.60058594 217.35302734 C-119.55610352 216.79695801 -120.51162109 216.24088867 -121.49609375 215.66796875 C-122.34357178 215.17578857 -123.1910498 214.6836084 -124.06420898 214.17651367 C-126 213 -126 213 -127 212 C-127.09648248 210.15238732 -127.12187318 208.3010419 -127.12025452 206.45091248 C-127.12162918 205.24631378 -127.12300385 204.04171509 -127.12442017 202.8006134 C-127.12088056 201.45358252 -127.11724575 200.10655188 -127.11352539 198.75952148 C-127.11324352 197.35052492 -127.11340125 195.94152821 -127.1139679 194.53253174 C-127.11425589 190.6959237 -127.10835894 186.85934666 -127.10139394 183.02274585 C-127.09516063 179.01753059 -127.09455662 175.0123147 -127.09336853 171.00709534 C-127.09025515 163.41747996 -127.08204167 155.82787892 -127.07201904 148.23826987 C-127.06085812 139.59996076 -127.05534751 130.96165099 -127.05032361 122.32333648 C-127.03985906 104.54888285 -127.02225948 86.77444258 -127 69 C-125.82293991 68.32844627 -125.82293991 68.32844627 -124.62210083 67.64332581 C-121.64887394 65.94665172 -118.67592725 64.24948857 -115.70315552 62.55201721 C-114.42807644 61.82406498 -113.152893 61.09629551 -111.87759399 60.36872864 C-103.51888972 55.59982498 -95.18161662 50.79680662 -86.875 45.9375 C-85.85054779 45.33834274 -84.82609558 44.73918549 -83.77059937 44.12187195 C-82.85114532 43.58407608 -81.93169128 43.04628021 -80.984375 42.4921875 C-74.71102202 38.82618393 -68.41992381 35.19131076 -62.125 31.5625 C-60.51419556 30.6338916 -60.51419556 30.6338916 -58.87084961 29.68652344 C-54.44649504 27.13677204 -50.02147413 24.58817919 -45.59619141 22.04003906 C-43.32508346 20.73216619 -41.0542478 19.42382039 -38.78369141 18.11499023 C-36.57753408 16.84418824 -34.37020236 15.57542254 -32.16162109 14.30883789 C-27.33421486 11.53428338 -22.53256798 8.73594326 -17.80078125 5.80078125 C-17.02226807 5.32294189 -16.24375488 4.84510254 -15.44165039 4.3527832 C-14.03464232 3.48431581 -12.63580191 2.60239268 -11.24780273 1.70385742 C-7.06294813 -0.86800997 -4.68743482 -1.57468514 0 0 Z " fill="#FED300" transform="translate(260,102)"/>
<path d="M0 0 C0.70125 0.845625 1.4025 1.69125 2.125 2.5625 C2.60195312 3.06265625 3.07890625 3.5628125 3.5703125 4.078125 C11.62096928 12.7356152 15.74910688 23.86167987 16.2578125 35.63671875 C15.65918787 49.10577282 9.32142353 59.91068898 -0.375 68.875 C-3.8570623 71.98488535 -6.47472858 73.36236429 -10.875 75.5625 C-11.205 133.6425 -11.535 191.7225 -11.875 251.5625 C-10.225 252.2225 -8.575 252.8825 -6.875 253.5625 C-5.07348416 254.50295234 -3.28780792 255.47412563 -1.515625 256.46875 C0.02049438 257.32907837 0.02049438 257.32907837 1.58764648 258.20678711 C2.67247314 258.81917236 3.7572998 259.43155762 4.875 260.0625 C6.00172119 260.69615479 7.12844238 261.32980957 8.28930664 261.98266602 C15.08017743 265.81250564 21.83484746 269.69585601 28.5402832 273.6730957 C34.85224525 277.41554663 41.20441601 281.08653479 47.5625 284.75 C49.22333618 285.70700806 49.22333618 285.70700806 50.91772461 286.68334961 C53.18837068 287.99139477 55.45912358 289.29925448 57.72998047 290.60693359 C63.19669975 293.75582051 68.66077646 296.9092849 74.125 300.0625 C80.64732439 303.82615365 87.17013763 307.58894623 93.6953125 311.34765625 C94.77989746 311.97285156 95.86448242 312.59804688 96.98193359 313.2421875 C99.14286728 314.48715392 101.30463806 315.7306686 103.46728516 316.97265625 C108.99234236 320.15147935 114.48944735 323.36898864 119.953125 326.65234375 C121.05253418 327.308396 122.15194336 327.96444824 123.28466797 328.64038086 C125.38366843 329.89515919 127.47676627 331.15987985 129.56298828 332.43579102 C130.96653564 333.27194946 130.96653564 333.27194946 132.3984375 334.125 C133.62699463 334.86943359 133.62699463 334.86943359 134.88037109 335.62890625 C137.51215261 336.72352584 138.51138137 336.58412451 141.125 335.5625 C142.72429675 334.78189087 144.30688173 333.96649022 145.875 333.125 C156.79897126 327.63125864 168.10732814 326.86286154 179.9375 330.1875 C193.19804873 334.8222549 201.02734974 343.54389615 207.1171875 356.04296875 C211.55088928 367.12722321 211.85129001 379.59006713 207.50390625 390.75390625 C201.89595226 402.17633945 193.44223835 410.34675324 181.5625 415.0625 C169.87416788 418.46716371 156.05517845 418.10133106 145.125 412.5625 C133.97598029 405.69882917 126.11834584 395.7533291 122.4296875 383.1953125 C122.125 380.5625 122.125 380.5625 122.72265625 377.1015625 C123.286175 372.35663994 123.51006838 368.80726136 121.125 364.5625 C114.7169771 358.77140749 106.45847947 355.24557819 98.77783203 351.42138672 C93.08072735 348.56089451 87.61912947 345.29046374 82.125 342.0625 C79.95942223 340.81061448 77.79275093 339.56061872 75.625 338.3125 C62.625 330.8125 49.625 323.3125 36.625 315.8125 C35.55233887 315.19366943 34.47967773 314.57483887 33.37451172 313.93725586 C31.20942929 312.68814482 29.04439018 311.43895871 26.87939453 310.18969727 C21.43884294 307.05047691 15.99752784 303.91259437 10.5546875 300.77734375 C-0.26864167 294.54122075 -11.08321351 288.29058398 -21.875 282 C-22.8355127 281.44046631 -23.79602539 280.88093262 -24.78564453 280.30444336 C-25.70200684 279.76956299 -26.61836914 279.23468262 -27.5625 278.68359375 C-28.35011719 278.2239624 -29.13773438 277.76433105 -29.94921875 277.29077148 C-30.91472656 276.72044189 -31.88023438 276.1501123 -32.875 275.5625 C-33.67692717 275.28712371 -34.47885433 275.01174742 -35.30508232 274.72802639 C-38.53866167 273.37026812 -40.49065511 272.1590456 -42.875 269.5625 C-44.43171757 263.46625946 -44.1985078 257.42197151 -44.10205078 251.16455078 C-44.10909466 249.26219144 -44.12053256 247.35984403 -44.1360321 245.45753479 C-44.16562396 240.29824544 -44.13375219 235.14094919 -44.09086847 229.98182154 C-44.05648152 224.58855411 -44.07858045 219.19552595 -44.09469604 213.80221558 C-44.11661888 203.59168807 -44.08771826 193.38196162 -44.040573 183.17154491 C-43.98936888 171.54642257 -43.99479866 159.92154276 -44.00499368 148.29633737 C-44.02469428 124.38479478 -43.97324737 100.47382828 -43.875 76.5625 C-44.99104614 75.96937012 -44.99104614 75.96937012 -46.12963867 75.36425781 C-47.1116626 74.83670898 -48.09368652 74.30916016 -49.10546875 73.765625 C-50.07637451 73.24645508 -51.04728027 72.72728516 -52.04760742 72.19238281 C-63.19264429 65.76769875 -68.76817122 55.78002845 -72.4296875 43.73828125 C-74.82923746 32.01416433 -72.41250364 19.74876582 -66.0625 9.6875 C-65.02971034 8.29004633 -63.96796254 6.91341234 -62.875 5.5625 C-62.39675781 4.94890625 -61.91851562 4.3353125 -61.42578125 3.703125 C-54.21512281 -4.50649115 -42.83767983 -9.19297873 -32.16015625 -10.34765625 C-20.1778873 -10.67535207 -9.25906371 -7.85007575 0 0 Z " fill="#61607C" transform="translate(88.875,95.4375)"/>
<path d="M0 0 C0.21029543 18.41066666 0.36897444 36.82102144 0.46630955 55.23262978 C0.51270668 63.78163438 0.57595324 72.32989252 0.67895508 80.87841797 C0.76869548 88.32988017 0.82673164 95.78080182 0.84679645 103.2327894 C0.85852516 107.17847324 0.8860577 111.12261078 0.95157051 115.06779861 C1.01276677 118.78322308 1.03148604 122.49646836 1.01796913 126.21234894 C1.02161747 128.22250711 1.07000185 130.23242886 1.11978149 132.24197388 C1.03093306 140.88164369 1.03093306 140.88164369 -1.93264961 144.09653854 C-4.23238459 145.658205 -6.4720497 146.85293346 -9 148 C-10.32996316 148.75032446 -11.65527682 149.5090452 -12.97265625 150.28125 C-14.3342937 151.02385536 -15.6976542 151.76330793 -17.0625 152.5 C-24.27501158 156.45177903 -31.40393432 160.53041377 -38.5 164.6875 C-46.9426862 169.63168275 -55.39804466 174.55226959 -63.875 179.4375 C-64.94951416 180.05681396 -66.02402832 180.67612793 -67.13110352 181.31420898 C-69.31631145 182.57340672 -71.50161457 183.83243927 -73.68701172 185.09130859 C-78.16418684 187.67071575 -82.64022626 190.25208888 -87.1159668 192.83398438 C-89.30604871 194.097326 -91.49631154 195.36035405 -93.68676758 196.62304688 C-98.73668376 199.53507346 -103.78308576 202.45278836 -108.8203125 205.38671875 C-110.15557983 206.16354004 -110.15557983 206.16354004 -111.51782227 206.95605469 C-113.17304482 207.91968229 -114.82723681 208.88508301 -116.48022461 209.85253906 C-121.88893876 213 -121.88893876 213 -123 213 C-123 165.81 -123 118.62 -123 70 C-114.75 65.38 -106.5 60.76 -98 56 C-89.10874034 50.82722268 -89.10874034 50.82722268 -80.23046875 45.6328125 C-73.51538962 41.70522589 -66.75947926 37.85038307 -60 34 C-51.15988998 28.96342183 -42.34401894 23.88834339 -33.5625 18.75 C-25.74625991 14.17829845 -17.91788437 9.6291755 -10.0625 5.125 C-8.71103882 4.34721191 -8.71103882 4.34721191 -7.33227539 3.55371094 C-6.51235107 3.08481445 -5.69242676 2.61591797 -4.84765625 2.1328125 C-4.12586182 1.71918457 -3.40406738 1.30555664 -2.66040039 0.87939453 C-1 0 -1 0 0 0 Z " fill="#29CCCB" transform="translate(379,172)"/>
<path d="M0 0 C1.88619268 0.93308191 3.77121634 1.86852714 5.65576172 2.80493164 C7.23053787 3.58592979 7.23053787 3.58592979 8.83712769 4.38270569 C13.71409749 6.87648183 18.41477917 9.64490279 23.125 12.4375 C25.23402286 13.67768236 27.34341061 14.91724438 29.453125 16.15625 C30.53142578 16.79046875 31.60972656 17.4246875 32.72070312 18.078125 C38.08994733 21.22484108 43.48208191 24.33158619 48.875 27.4375 C49.95410645 28.05939209 51.03321289 28.68128418 52.14501953 29.32202148 C54.33582951 30.58449731 56.5267476 31.84678556 58.71777344 33.10888672 C63.06571949 35.61403326 67.41219906 38.12171714 71.75854492 40.62963867 C73.90965218 41.87085526 76.06085573 43.111905 78.2121582 44.3527832 C83.2458636 47.25627178 88.2790232 50.1606941 93.31021118 53.06854248 C95.08362608 54.09345403 96.85721646 55.11806123 98.63085938 56.14257812 C100.84995773 57.42452738 103.06873016 58.70704107 105.28710938 59.99023438 C106.29708984 60.57353516 107.30707031 61.15683594 108.34765625 61.7578125 C109.22429932 62.2645752 110.10094238 62.77133789 111.00415039 63.29345703 C114.98472785 65.56093616 118.99539989 67.77522216 123 70 C123 117.19 123 164.38 123 213 C104.87579418 203.11406955 86.90103197 193.00154128 69.08984375 182.5625 C62.78429389 178.86786577 56.4569247 175.21170316 50.125 171.5625 C48.52108398 170.63739624 48.52108398 170.63739624 46.88476562 169.69360352 C41.83698236 166.78325517 36.78712729 163.87659389 31.7322998 160.97850037 C29.97519518 159.97078041 28.21870476 158.9619982 26.46240234 157.95288086 C24.27254945 156.6950442 22.08155559 155.4391908 19.88916016 154.18579102 C18.38361572 153.32038696 18.38361572 153.32038696 16.84765625 152.4375 C15.98148682 151.94121094 15.11531738 151.44492187 14.22290039 150.93359375 C13.15934326 150.29550781 12.09578613 149.65742188 11 149 C10.11656229 148.5928221 9.23312458 148.18564421 8.32291603 147.76612759 C0.61450368 143.78251046 0.61450368 143.78251046 -1.0020647 139.09327888 C-1.35717114 135.41092711 -1.36105337 131.86826292 -1.2487793 128.17016602 C-1.24567303 126.77013902 -1.24742494 125.37009413 -1.25364685 123.97007751 C-1.25679368 120.18390352 -1.19230105 116.40159027 -1.11533332 112.61631131 C-1.04639838 108.65537372 -1.04009441 104.69433979 -1.02705383 100.7328949 C-0.99291231 93.23825868 -0.90271679 85.74539506 -0.79220945 78.25153822 C-0.66910246 69.71732753 -0.6087395 61.18303053 -0.55355966 52.64815247 C-0.43869106 35.09774426 -0.24531036 17.54905975 0 0 Z " fill="#FD5E80" transform="translate(133,172)"/>
<path d="M0 0 C1.65 0.33 3.3 0.66 5 1 C6.54898136 1.08682815 8.10093237 1.13055026 9.65234375 1.1328125 C10.51150391 1.13410156 11.37066406 1.13539063 12.25585938 1.13671875 C13.14080078 1.13285156 14.02574219 1.12898437 14.9375 1.125 C15.81857422 1.12886719 16.69964844 1.13273438 17.60742188 1.13671875 C18.8980957 1.13478516 18.8980957 1.13478516 20.21484375 1.1328125 C20.98948975 1.13168457 21.76413574 1.13055664 22.56225586 1.12939453 C25.42555937 0.97741147 28.17640173 0.48775961 31 0 C31.39739232 25.12107186 31.69703077 50.24167182 31.88080692 75.36525536 C31.96841296 87.03119438 32.08780578 98.69517898 32.2824707 110.35986328 C32.45209336 120.5288294 32.5616285 130.69638027 32.59950441 140.86672175 C32.62164305 146.25116065 32.67351823 151.63155163 32.79741096 157.0146904 C32.91319884 162.08697402 32.94833309 167.15356348 32.92283058 172.22704315 C32.92749166 174.08404954 32.96111292 175.94125437 33.02649307 177.79711533 C33.40932272 189.22887757 33.40932272 189.22887757 31 194 C26.84542358 198.28908312 21.49283554 200.72120058 16.08189952 203.06662488 C13.09699426 204.40484331 10.36738348 206.04304273 7.56640625 207.73046875 C5.56553379 208.88355831 3.56422606 210.03589289 1.5625 211.1875 C-0.68620951 212.4830528 -2.93490708 213.77862632 -5.18359375 215.07421875 C-6.87718018 216.0494751 -6.87718018 216.0494751 -8.60498047 217.04443359 C-14.0716998 220.19332054 -19.53574887 223.34683264 -25 226.5 C-27.16665311 227.7500235 -29.33331979 229.00002347 -31.5 230.25 C-33.10875 231.178125 -33.10875 231.178125 -34.75 232.125 C-70.50000002 252.75000001 -70.50000002 252.75000001 -73.75170898 254.62597656 C-75.91268988 255.87270256 -78.07365998 257.11944727 -80.23461914 258.36621094 C-85.73818851 261.54145883 -91.24196032 264.71635495 -96.74609375 267.890625 C-97.85654053 268.5312085 -98.9669873 269.17179199 -100.11108398 269.83178711 C-102.30413758 271.0964346 -104.49764941 272.36028783 -106.69165039 273.62329102 C-111.72441195 276.52236856 -116.74840438 279.43414714 -121.75 282.38671875 C-122.63115479 282.90459961 -123.51230957 283.42248047 -124.42016602 283.95605469 C-126.05148745 284.91608364 -127.679791 285.88126675 -129.30444336 286.85253906 C-130.01737549 287.27116211 -130.73030762 287.68978516 -131.46484375 288.12109375 C-132.079646 288.4864624 -132.69444824 288.85183105 -133.32788086 289.22827148 C-135 290 -135 290 -138 290 C-138.20753906 289.24976563 -138.41507812 288.49953125 -138.62890625 287.7265625 C-141.3082546 278.82529642 -145.21429745 271.45569878 -152 265 C-150.7220314 261.1660942 -149.52549332 260.89363185 -146.03125 258.99609375 C-144.99427979 258.42576416 -143.95730957 257.85543457 -142.88891602 257.26782227 C-141.21140259 256.36181274 -141.21140259 256.36181274 -139.5 255.4375 C-137.18543129 254.16545643 -134.87162963 252.89201618 -132.55859375 251.6171875 C-131.42663574 250.99553711 -130.29467773 250.37388672 -129.12841797 249.73339844 C-125.23288683 247.5749568 -121.38850119 245.3413034 -117.5625 243.0625 C-110.59296903 238.92571282 -103.58497227 234.85877918 -96.5625 230.8125 C-95.45527588 230.17449463 -94.34805176 229.53648926 -93.20727539 228.87915039 C-90.93662932 227.57110523 -88.66587642 226.26324552 -86.39501953 224.95556641 C-80.9283002 221.80667946 -75.46425113 218.65316736 -70 215.5 C-67.83334689 214.2499765 -65.66668021 212.99997653 -63.5 211.75 C-61.89125 210.821875 -61.89125 210.821875 -60.25 209.875 C-57 208 -53.75 206.125 -50.5 204.25 C-49.42580811 203.63020264 -48.35161621 203.01040527 -47.24487305 202.37182617 C-45.09554585 201.13197277 -42.94597219 199.8925465 -40.79614258 198.65356445 C-35.72165511 195.72836237 -30.64978383 192.79888277 -25.5866394 189.85409546 C-23.19684332 188.4645137 -20.80563164 187.07737828 -18.41430664 185.69042969 C-16.72859411 184.71136747 -15.04493413 183.72877394 -13.36132812 182.74609375 C-12.33845703 182.153125 -11.31558594 181.56015625 -10.26171875 180.94921875 C-9.36412842 180.42674561 -8.46653809 179.90427246 -7.54174805 179.3659668 C-5 178 -5 178 0 176 C0 117.92 0 59.84 0 0 Z " fill="#443961" transform="translate(436,171)"/>
<path d="M0 0 C0 46.53 0 93.06 0 141 C-4.28456404 139.57181199 -7.1910008 138.48701477 -10.921875 136.26953125 C-11.85112793 135.72176025 -12.78038086 135.17398926 -13.73779297 134.60961914 C-14.73182129 134.01656982 -15.72584961 133.42352051 -16.75 132.8125 C-18.91367549 131.53580222 -21.07775166 130.25978329 -23.2421875 128.984375 C-24.35819336 128.32501953 -25.47419922 127.66566406 -26.62402344 126.98632812 C-32.0212633 123.81074644 -37.44764 120.6862344 -42.875 117.5625 C-45.05991376 116.30341652 -47.24480949 115.04430177 -49.4296875 113.78515625 C-51.05729004 112.84760498 -51.05729004 112.84760498 -52.71777344 111.89111328 C-59.22217941 108.14348395 -65.72375795 104.39095039 -72.2253418 100.63842773 C-77.77686292 97.43467538 -83.33020797 94.23415423 -88.88671875 91.0390625 C-100.32032959 84.46078718 -111.73299389 77.86060273 -123 71 C-118.34558255 66.90411264 -113.0821735 64.10974862 -107.6875 61.125 C-99.4753591 56.53350368 -91.30537799 51.88124822 -83.1875 47.125 C-74.84874314 42.24379304 -66.49634389 37.38763217 -58.125 32.5625 C-57.0515332 31.94366943 -55.97806641 31.32483887 -54.87207031 30.68725586 C-50.44732162 28.13723813 -46.0218853 25.58841595 -41.59619141 23.04003906 C-38.20961328 21.0897955 -34.82350416 19.13873988 -31.4375 17.1875 C-30.35936035 16.56681641 -29.2812207 15.94613281 -28.17041016 15.30664062 C-23.31788853 12.5090324 -18.47446329 9.69889147 -13.66015625 6.8359375 C-12.86359619 6.36260986 -12.06703613 5.88928223 -11.24633789 5.40161133 C-9.7938606 4.5357448 -8.34365882 3.66604464 -6.89624023 2.79174805 C-2.21802943 0 -2.21802943 0 0 0 Z " fill="#FEE700" transform="translate(256,101)"/>
<path d="M0 0 C0.70125 0.845625 1.4025 1.69125 2.125 2.5625 C2.60195312 3.06265625 3.07890625 3.5628125 3.5703125 4.078125 C11.62096928 12.7356152 15.74910688 23.86167987 16.2578125 35.63671875 C15.65918787 49.10577282 9.32142353 59.91068898 -0.375 68.875 C-8.95996921 76.19873834 -17.82668116 77.9168348 -28.8125 77.875 C-29.65490234 77.89111328 -30.49730469 77.90722656 -31.36523438 77.92382812 C-42.24782962 77.9322058 -52.0525254 73.87601703 -60.109375 66.5234375 C-69.68783008 56.33282551 -73.42430457 45.05002914 -73.1875 31.2265625 C-72.35854112 21.50701964 -68.9903114 13.12108441 -62.875 5.5625 C-62.39675781 4.94890625 -61.91851562 4.3353125 -61.42578125 3.703125 C-54.21512281 -4.50649115 -42.83767983 -9.19297873 -32.16015625 -10.34765625 C-20.1778873 -10.67535207 -9.25906371 -7.85007575 0 0 Z " fill="#939DEF" transform="translate(88.875,95.4375)"/>
<path d="M0 0 C9.47586978 9.81302619 12.23808393 21.18029209 12.11328125 34.46484375 C11.40737606 46.19570455 5.48787665 57.11415594 -3.1015625 65.03515625 C-15.31734279 74.12501296 -28.28774425 75.40428822 -43.1015625 74.03515625 C-54.70914417 71.71363992 -63.07128344 64.2370104 -70.1015625 55.03515625 C-71.69348915 52.4494529 -72.95937645 49.84529654 -74.1015625 47.03515625 C-74.4934375 46.12765625 -74.8853125 45.22015625 -75.2890625 44.28515625 C-78.27287117 32.34992156 -77.01858393 20.74881783 -71.44921875 9.78125 C-69.7778085 7.09309566 -68.00696072 4.56111994 -66.1015625 2.03515625 C-65.3796875 0.96265625 -64.6578125 -0.10984375 -63.9140625 -1.21484375 C-58.03648782 -6.96180566 -50.21416864 -11.43416335 -42.1015625 -12.96484375 C-41.14636719 -13.16207031 -41.14636719 -13.16207031 -40.171875 -13.36328125 C-24.78659951 -15.89931567 -11.06018756 -10.34065863 0 0 Z " fill="#7F7FFE" transform="translate(484.1015625,98.96484375)"/>
<path d="M0 0 C9.38237303 8.29636781 16.27137906 20.00533873 17.39453125 32.58203125 C17.53279801 46.47784111 14.70393646 57.26717283 5.05859375 67.8203125 C-5.74962792 77.69879467 -17.2802953 80.77036316 -31.59375 80.19921875 C-44.19976796 79.32482872 -52.66706611 73.46043589 -61.19140625 64.5703125 C-70.56434941 53.64456638 -71.66511749 41.59813592 -70.94140625 27.8203125 C-69.12121271 16.44827763 -60.65745806 5.89854412 -51.94140625 -1.1796875 C-36.11437555 -11.23132657 -15.35413717 -11.21274604 0 0 Z " fill="#929DEF" transform="translate(281.94140625,432.1796875)"/>
<path d="M0 0 C0 11.88 0 23.76 0 36 C-4.125 38.35125 -8.25 40.7025 -12.5 43.125 C-22.7180306 48.95765835 -32.90541762 54.83917038 -43.06103516 60.7800293 C-55.76971009 68.21180029 -68.53366605 75.54772873 -81.29101562 82.89550781 C-92.95728008 89.61591386 -104.61806966 96.34529489 -116.25 103.125 C-117.22235596 103.69114014 -118.19471191 104.25728027 -119.1965332 104.84057617 C-124.24441875 107.78570282 -129.27478437 110.75707327 -134.28515625 113.765625 C-135.29739258 114.37132324 -136.30962891 114.97702148 -137.35253906 115.60107422 C-139.28371282 116.75844048 -141.21161867 117.92128224 -143.13574219 119.09033203 C-144.42399902 119.86159424 -144.42399902 119.86159424 -145.73828125 120.6484375 C-146.49149658 121.10395996 -147.24471191 121.55948242 -148.02075195 122.02880859 C-150 123 -150 123 -153 123 C-153.20753906 122.17757812 -153.41507813 121.35515625 -153.62890625 120.5078125 C-155.84888978 112.46385545 -158.82875813 106.51504486 -164 100 C-165.00255593 98.66858745 -166.00339593 97.33587354 -167 96 C-155.37152848 88.63216278 -143.4039726 81.84543848 -131.46826172 74.9921875 C-125.93379096 71.81315882 -120.40396711 68.62608873 -114.875 65.4375 C-113.79839111 64.81673584 -112.72178223 64.19597168 -111.61254883 63.55639648 C-104.39601504 59.39194672 -97.19392573 55.20336556 -90 51 C-76.26944812 42.97732489 -62.48922034 35.04141741 -48.70898438 27.10449219 C-45.43068947 25.21601511 -42.15282242 23.32679702 -38.875 21.4375 C-37.28486084 20.52194336 -37.28486084 20.52194336 -35.66259766 19.58789062 C-30.12815101 16.3973754 -24.60606095 13.18721643 -19.1015625 9.9453125 C-17.43891357 8.96800171 -17.43891357 8.96800171 -15.74267578 7.97094727 C-13.62162506 6.7226222 -11.50271524 5.47065051 -9.38623047 4.21459961 C-7.97301514 3.38327515 -7.97301514 3.38327515 -6.53125 2.53515625 C-5.70173828 2.044104 -4.87222656 1.55305176 -4.01757812 1.04711914 C-2 0 -2 0 0 0 Z " fill="#62617C" transform="translate(256,0)"/>
<path d="M0 0 C12.44562522 1.13142047 12.44562522 1.13142047 17.375 3.3125 C18.33148438 3.72113281 19.28796875 4.12976563 20.2734375 4.55078125 C31.24359031 10.38162178 38.26589484 21.81693877 42.109375 33.3203125 C45.00263456 45.27404279 43.4229942 57.26756544 37.33984375 67.90234375 C30.72300385 77.80722319 22.28273071 83.75161745 11.01953125 87.40625 C8 88 8 88 0 88 C0 58.96 0 29.92 0 0 Z " fill="#7F7FFE" transform="translate(256,424)"/>
</svg>
